<?xml version="1.0" encoding="utf-8"?>
<!-- Generator: Adobe Illustrator 19.0.0, SVG Export Plug-In . SVG Version: 6.00 Build 0)  -->
<svg version="1.1" id="Layer_1" xmlns="http://www.w3.org/2000/svg" xmlns:xlink="http://www.w3.org/1999/xlink" x="0px" y="0px"
	 viewBox="-415 217 128 128" style="enable-background:new -415 217 128 128;" xml:space="preserve">
<style type="text/css">
	.st0{fill:#DB4437;}
	.st1{fill:#D5FF81;}
	.st2{fill:#D5FF5C;}
	.st3{opacity:0.32;fill:#DB4437;}
	.st4{fill:#AC4437;}
</style>
<rect x="-415" y="217" class="st0" width="128" height="128"/>
<polygon class="st1" points="-383.7,315.2 -385.5,247.3 -318.9,246.8 -316.5,312.2 "/>
<polygon class="st2" points="-398.4,280.9 -350,233.3 -304.1,281.4 -350.3,327.9 "/>
<polygon class="st0" points="-374.6,281.7 -350.4,257.9 -327.4,282 -350.5,305.2 "/>
<polygon class="st1" points="-364.5,281.1 -350.6,267.5 -337.5,281.2 -350.7,294.5 "/>
<polygon class="st3" points="-350.7,294.5 -350.3,327.9 -304.1,281.4 -337.5,281.2 "/>
<polygon class="st3" points="-350.6,267.5 -350,233.3 -398.4,280.9 -364.5,281.1 "/>
<polygon class="st4" points="-350.6,267.5 -350.4,257.9 -328.8,280.6 -337.5,281.2 "/>
<polygon class="st4" points="-374.6,281.7 -364.5,281.1 -350.7,294.5 -350.5,305.2 "/>
</svg>
